<svg fill="#000000" viewBox="0 0 24 24" xmlns="http://www.w3.org/2000/svg">
    <g stroke-width="0"></g>
    <g stroke-linecap="round" stroke-linejoin="round"></g>
    <g>
    q<path d="M21,19H9a1,1,0,0,1,0-2H21a1,1,0,0,1,0,2Zm0-6H9a1,1,0,0,1,0-2H21a1,1,0,0,1,0,2Zm0-6H9A1,1,0,0,1,9,5H21a1,1,0,0,1,0,2Z" style="fill: #000000;"></path>
    q<path d="M5,6A1.5,1.5,0,1,1,3.5,4.5,1.5,1.5,0,0,1,5,6ZM3.5,10.5A1.5,1.5,0,1,0,5,12,1.5,1.5,0,0,0,3.5,10.5Zm0,6A1.5,1.5,0,1,0,5,18,1.5,1.5,0,0,0,3.5,16.5Z" style="fill: #13b4cd;"></path>
    </g>
</svg>